<svg width="385" height="385" viewBox="0 0 385 385" fill="none" xmlns="http://www.w3.org/2000/svg">
<g clip-path="url(#clip0_827_43)">
<path d="M372.939 264.641C366.298 264.641 360.909 270.031 360.909 276.671V360.883H24.061V276.671C24.061 270.03 18.671 264.641 12.031 264.641C5.391 264.641 0 270.031 0 276.671V372.913C0 379.554 5.39 384.943 12.03 384.943H372.939C379.58 384.943 384.969 379.553 384.969 372.913V276.671C384.97 270.019 379.58 264.641 372.939 264.641Z" fill="#9CA3AF"/>
<path d="M117.067 103.507L180.527 40.949V276.659C180.527 283.3 185.965 288.689 192.678 288.689C199.391 288.689 204.829 283.299 204.829 276.659V40.95L268.289 103.508C273.029 108.212 280.728 108.212 285.468 103.508C290.208 98.804 290.22 91.189 285.468 86.497L201.268 3.50002C196.576 -1.15598 188.684 -1.10798 184.077 3.50002L99.8881 86.496C95.1361 91.2 95.1481 98.815 99.8881 103.507C104.628 108.211 112.327 108.211 117.067 103.507Z" fill="#9CA3AF"/>
</g>
<defs>
<clipPath id="clip0_827_43">
<rect width="384.97" height="384.97" fill="white"/>
</clipPath>
</defs>
</svg>
